<svg id="Camada_1" data-name="Camada 1" xmlns="http://www.w3.org/2000/svg" xmlns:xlink="http://www.w3.org/1999/xlink" viewBox="0 0 1436.88 311.73"><defs><style>.cls-1{fill:url(#linear-gradient);}.cls-2{fill:url(#linear-gradient-2);}.cls-3{fill:url(#linear-gradient-3);}.cls-4,.cls-5{fill:#122f3b;}.cls-5{font-size:69.78px;font-family:Montserrat-Regular, Montserrat;}.cls-6{letter-spacing:-0.02em;}</style><linearGradient id="linear-gradient" x1="-150.6" y1="489.88" x2="163.5" y2="489.88" gradientTransform="translate(233.92 -194.79) rotate(-3.27)" gradientUnits="userSpaceOnUse"><stop offset="0" stop-color="#3cc"/><stop offset="0.31" stop-color="#47e0b8"/><stop offset="0.73" stop-color="#5ef7a1"/><stop offset="1" stop-color="#6f9"/></linearGradient><linearGradient id="linear-gradient-2" x1="4.4" y1="470.06" x2="401.24" y2="470.06" xlink:href="#linear-gradient"/><linearGradient id="linear-gradient-3" x1="189.68" y1="459.75" x2="612.58" y2="459.75" xlink:href="#linear-gradient"/></defs><path class="cls-1" d="M250.91,371c-37.11-36,29.71-121.47,121.53-177.92,11.39-7,35.09-17.09,46.11-22.53-48.07-6.33-138.44,30.91-200.1,75.24C142.37,300.52,94.91,355.62,123.68,389.5c21.79,25.66,92.06,40.11,174.18-2.3C277.28,385.82,260.83,380.67,250.91,371Z" transform="translate(-115.19 -102.35)"/><path class="cls-2" d="M278.84,362.6c8,7.78,20.3,12.64,35.57,14.95l.31-.22,1.67-1.16.81-.56,1.64-1.13.81-.55,1.62-1.1.82-.54,1.6-1.07.81-.53,1.58-1,.8-.52,1.57-1,.81-.51,1.55-1,.8-.5,1.54-1,.79-.47,1.52-.92.79-.47,1.51-.89.77-.45,1.51-.87.75-.43,1.51-.85.73-.4,1.5-.83.73-.39,1.49-.8.7-.38,1.5-.78.68-.35,1.5-.76.64-.32c.51-.26,1-.51,1.52-.75l.6-.3,1.54-.74.54-.25,1.58-.74.47-.21c.54-.26,1.09-.5,1.63-.75L360,351l1.71-.75.2-.08q5.94-2.56,11.56-4.48l.23-.08,1.49-.49.46-.15,1.36-.43.57-.18,1.27-.38.65-.19,1.2-.35.69-.19,1.15-.3.73-.19,1.11-.28.75-.18,1.07-.25.77-.17,1-.23.79-.16,1-.2.79-.15,1-.18.8-.13,1-.16.8-.12.94-.13.81-.11.92-.11.81-.09.9-.1.8-.07.9-.08.79-.05.88-.06.8,0,.86,0,.79,0,.85,0c.26,0,.53,0,.79,0h.82c.27,0,.53,0,.8,0h.81l.79,0,.8,0,.78,0,.79.05.78.06.77.06.78.08.75.08.78.1.74.1.77.11.73.11.76.13.71.13.77.15.7.14.76.17.68.16.77.19.66.16.76.21.65.18.77.23.63.19.77.26.6.2.79.27.57.21.82.32.52.2c.3.11.6.24.9.37l.43.17,1.31.58c.6.28,1.18.57,1.75.87l.36.18c.56.3,1.11.61,1.64.93l.2.13c.51.31,1,.63,1.49.95l.19.14c.52.35,1,.73,1.51,1.11l.21.16a35.44,35.44,0,0,1,2.82,2.5l.16.17c.45.44.88.9,1.29,1.37l0,0c.4.45.79.92,1.16,1.4l.1.11.05,0a511.76,511.76,0,0,0,76.34-34.77c95-53.46,157.07-109.79,128.54-149.38-6.33-8.8-17.62-16.88-32.91-22.93-21.42,15.27-56.32,31-92.17,35.6-37.55,4.81-72.55-.69-96.35-9.36q-12.14,6.38-24.56,14l24.56-14q-12.14,6.38-24.56,14c-91.82,56.45-163.13,138.31-126,174.34,8,7.76,20.23,12.61,35.44,14.93" transform="translate(-115.19 -102.35)"/><path class="cls-3" d="M859.14,134.94C834,102.58,745,81.8,637.37,134.54c20.39,6.21,35.21,15.8,42.85,26.4,28.52,39.6-8.73,95-103.71,148.49C548.1,325.41,487,356,455.94,366.2a37.55,37.55,0,0,0,4.1,4.41c40.68,37,177.73-11.79,273.65-72.07S891.09,176.08,859.14,134.94Z" transform="translate(-115.19 -102.35)"/><path class="cls-4" d="M1072.67,244.2V214.5h62.9V198.78h-62.9v-28h82.11V151.61H1034.24v81.74l-81-81.09a13.22,13.22,0,0,0-9.35-4.26,10.13,10.13,0,0,0-7.68,3.16,13.16,13.16,0,0,0-3.26,8.83V265.16h19.22v-84l81.67,84h121v-21Z" transform="translate(-115.19 -102.35)"/><path class="cls-4" d="M1230.76,192.8l43.07-42.43h26l-57.11,55-14,12.79-47.65,46.85h-26l61.53-59.64" transform="translate(-115.19 -102.35)"/><path class="cls-4" d="M1238.33,206.07l61.53,59h-26l-47.65-46.35-14-12.64L1155,151.61h26l43.06,42" transform="translate(-115.19 -102.35)"/><path class="cls-4" d="M1403.84,150.56h19.56v64.05a69.68,69.68,0,0,1-3.47,23.11,37.87,37.87,0,0,1-10.88,16.33q-7.42,6.48-19.17,9.63t-28.48,3.15q-16.56,0-28.32-3.15t-19.16-9.63A37.8,37.8,0,0,1,1303,237.72a69.68,69.68,0,0,1-3.47-23.11V150.56h20.67v64.05a45.53,45.53,0,0,0,2.13,14.83,22.12,22.12,0,0,0,6.94,10.1,30.49,30.49,0,0,0,12.86,5.75,109.43,109.43,0,0,0,39.75,0,30.55,30.55,0,0,0,12.86-5.75,22.12,22.12,0,0,0,6.94-10.1,45.53,45.53,0,0,0,2.13-14.83Z" transform="translate(-115.19 -102.35)"/><path class="cls-4" d="M1429.06,265.25v-20h86c5.37,0,9.49-1.37,12.39-4.11a14.27,14.27,0,0,0,4.34-10.88q0-7.41-4.34-11.12c-2.9-2.47-7-3.71-12.39-3.71h-52.69a41.2,41.2,0,0,1-14.59-2.45,31.18,31.18,0,0,1-11-6.78,29.59,29.59,0,0,1-6.94-10.33,34.18,34.18,0,0,1-2.45-13.1,35.22,35.22,0,0,1,2.29-12.85,27.34,27.34,0,0,1,6.78-10.18,32,32,0,0,1,11.12-6.7,43.61,43.61,0,0,1,15.15-2.45H1545v20h-82.35q-6.95,0-10.73,3.7t-3.79,10.34c0,4.41,1.29,7.84,3.87,10.25s6.07,3.63,10.49,3.63H1515q17.52,0,26.59,8.2t9.07,24.93a39.46,39.46,0,0,1-2.21,13.41,28.89,28.89,0,0,1-6.63,10.65,30.28,30.28,0,0,1-11.12,7,44.54,44.54,0,0,1-15.7,2.52Z" transform="translate(-115.19 -102.35)"/><text x="-115.19" y="-102.35"/><text class="cls-5" transform="translate(1196.58 275.57)"><tspan class="cls-6">C</tspan><tspan x="48.56" y="0">onsig</tspan></text></svg>